<svg width="15" height="15" viewBox="0 0 15 15" fill="none" xmlns="http://www.w3.org/2000/svg">
<path d="M5.01525 12.0663C5.01525 12.1319 4.94967 12.1787 4.85599 12.1787C4.76232 12.1787 4.68737 12.1787 4.68737 12.0663C4.68737 11.9539 4.76232 11.9539 4.84663 11.9539C4.93094 11.9539 5.01525 12.0008 5.01525 12.0663ZM4.07846 11.9258C4.07846 11.9914 4.07846 12.0663 4.20961 12.0851C4.24316 12.1012 4.28173 12.1033 4.31685 12.0911C4.35198 12.0788 4.38078 12.053 4.39697 12.0195C4.39697 11.9539 4.39697 11.8883 4.26582 11.8602C4.13467 11.8321 4.0972 11.8602 4.07846 11.9258ZM5.4087 11.879C5.32439 11.879 5.26818 11.9539 5.27755 12.0289C5.28691 12.1038 5.36186 12.1319 5.45554 12.1132C5.54921 12.0944 5.59605 12.0289 5.58668 11.9633C5.57732 11.8977 5.50237 11.8696 5.4087 11.879ZM7.40402 0.000588929C6.41608 -0.00871333 5.43642 0.181678 4.52385 0.560335C3.61128 0.938993 2.78462 1.49811 2.09346 2.20414C1.40231 2.91016 0.860914 3.74855 0.50177 4.66896C0.142626 5.58939 -0.0268754 6.57285 0.00345767 7.56041C-0.0226973 9.17814 0.457076 10.7636 1.37575 12.0955C2.29443 13.4273 3.60613 14.4389 5.12766 14.9891C5.51174 15.0547 5.65223 14.8111 5.65223 14.6144C5.65223 14.4177 5.65223 13.3591 5.65223 12.7408C5.65223 12.7408 3.53513 13.2092 3.08547 11.804C3.08547 11.804 2.74823 10.8673 2.25174 10.6705C2.25174 10.6705 1.55852 10.1834 2.29858 10.1928C2.54096 10.2255 2.77231 10.3146 2.97404 10.4528C3.17578 10.5911 3.34228 10.7748 3.46019 10.989C3.5582 11.1812 3.69445 11.3513 3.86056 11.4888C4.02666 11.6264 4.21913 11.7286 4.42615 11.7891C4.63318 11.8497 4.85038 11.8673 5.06445 11.8409C5.27851 11.8144 5.48491 11.7445 5.67097 11.6354C5.70647 11.2443 5.87509 10.8773 6.14873 10.5956C4.46255 10.3989 2.7576 10.1553 2.7576 7.16696C2.73969 6.82934 2.79393 6.49182 2.91668 6.17687C3.03945 5.86193 3.22792 5.57669 3.46955 5.34025C3.24158 4.6545 3.26818 3.9096 3.5445 3.24186C4.18151 3.03577 5.6335 4.0756 5.6335 4.0756C6.87398 3.72574 8.18707 3.72574 9.42747 4.0756C9.42747 4.0756 10.8795 3.03577 11.5165 3.24186C11.7988 3.90829 11.8254 4.65539 11.5914 5.34025C11.8417 5.57343 12.0401 5.85649 12.174 6.17116C12.3079 6.48583 12.3743 6.82503 12.369 7.16696C12.369 10.1647 10.5891 10.3989 8.90287 10.5956C9.07233 10.7857 9.20133 11.0083 9.28189 11.2499C9.36236 11.4915 9.39281 11.747 9.37126 12.0008C9.37126 13.05 9.37126 14.3427 9.37126 14.5957C9.3707 14.6589 9.38531 14.7214 9.41398 14.7778C9.44274 14.8342 9.48452 14.8829 9.53604 14.9196C9.58747 14.9564 9.64714 14.9802 9.70972 14.989C9.77239 14.9979 9.83628 14.9914 9.89586 14.9704C11.4147 14.425 12.7236 13.4162 13.638 12.0867C14.5525 10.7571 15.0261 9.17374 14.992 7.56041C15.0008 6.56283 14.8103 5.57351 14.4318 4.65049C14.0532 3.72747 13.4941 2.88932 12.7874 2.1852C12.0807 1.48107 11.2404 0.925138 10.316 0.550003C9.39159 0.174868 8.4016 -0.0119171 7.40402 0.000588929ZM2.94496 10.6893C2.94496 10.6893 2.94496 10.7923 2.94496 10.8485C2.9554 10.859 2.9678 10.8673 2.98147 10.873C2.99514 10.8787 3.00978 10.8816 3.02458 10.8816C3.03937 10.8816 3.05403 10.8787 3.06769 10.873C3.08135 10.8673 3.09376 10.859 3.10421 10.8485C3.10421 10.8485 3.10421 10.7455 3.10421 10.6799C3.10421 10.6143 2.98243 10.6518 2.94496 10.6893ZM2.61708 10.4363C2.61708 10.4363 2.61708 10.53 2.68266 10.5581C2.69055 10.568 2.70055 10.5758 2.71189 10.5813C2.72324 10.5866 2.73566 10.5895 2.74823 10.5895C2.7608 10.5895 2.77322 10.5866 2.78456 10.5813C2.79591 10.5758 2.8059 10.568 2.81381 10.5581C2.81381 10.5581 2.81381 10.4644 2.74823 10.4363C2.68266 10.4082 2.63582 10.4082 2.61708 10.4363ZM3.55387 11.5417C3.55387 11.5417 3.55387 11.6729 3.55387 11.7385C3.55387 11.804 3.71312 11.8134 3.75059 11.7385C3.78806 11.6635 3.75059 11.6073 3.75059 11.5417C3.75059 11.4762 3.62881 11.4949 3.59134 11.5417H3.55387ZM3.20726 11.0827C3.20726 11.0827 3.20726 11.1951 3.20726 11.2701C3.20726 11.345 3.33841 11.3731 3.38524 11.345C3.40896 11.3178 3.42203 11.2828 3.42203 11.2467C3.42203 11.2105 3.40896 11.1755 3.38524 11.1483C3.33841 11.0733 3.26346 11.0452 3.20726 11.0827Z" fill="white" fill-opacity="0.7"/>
</svg>
