<svg width="16" height="15" viewBox="0 0 16 15" fill="none" xmlns="http://www.w3.org/2000/svg">
<path d="M12.9083 12.781H10.6636V9.30032C10.6636 8.47031 10.6486 7.40184 9.49608 7.40184C8.32696 7.40184 8.14808 8.30616 8.14808 9.23989V12.7808H5.90335V5.62306H8.05828V6.60124H8.08845C8.30411 6.23614 8.61574 5.93579 8.99016 5.73218C9.36457 5.52857 9.78775 5.42933 10.2146 5.44502C12.4897 5.44502 12.9092 6.92676 12.9092 8.85441L12.9083 12.781ZM3.37057 4.64465C3.11294 4.6447 2.86107 4.56909 2.64682 4.42741C2.43258 4.28572 2.26559 4.08431 2.16696 3.84864C2.06832 3.61298 2.04247 3.35365 2.09269 3.10344C2.14291 2.85323 2.26693 2.62339 2.44908 2.44298C2.63122 2.26256 2.86331 2.13968 3.11599 2.08986C3.36866 2.04005 3.63058 2.06555 3.86862 2.16313C4.10667 2.26071 4.31014 2.42599 4.45331 2.63807C4.59649 2.85015 4.67293 3.09951 4.67298 3.35461C4.67301 3.52399 4.63934 3.69172 4.57391 3.84822C4.50847 4.00471 4.41255 4.14692 4.29162 4.26671C4.17068 4.3865 4.02708 4.48153 3.86905 4.54638C3.71102 4.61123 3.54164 4.64462 3.37057 4.64465ZM4.49293 12.781H2.24588V5.62306H4.49293V12.781ZM14.0274 0.00102197H1.11792C0.824908 -0.00225205 0.54256 0.10979 0.33294 0.312526C0.12332 0.515263 0.003576 0.792108 0 1.08223V13.9176C0.00345361 14.2078 0.123127 14.4848 0.33274 14.6878C0.542353 14.8907 0.824763 15.003 1.11792 14.9999H14.0274C14.3211 15.0036 14.6043 14.8916 14.8147 14.6887C15.0252 14.4857 15.1456 14.2084 15.1497 13.9176V1.0813C15.1455 0.790607 15.025 0.513447 14.8145 0.310715C14.6041 0.107983 14.3209 -0.00373839 14.0274 9.55136e-05" fill="white" fill-opacity="0.7"/>
</svg>
