<svg width="17" height="15" viewBox="0 0 17 15" fill="none" xmlns="http://www.w3.org/2000/svg">
<path fill-rule="evenodd" clip-rule="evenodd" d="M5.94966 1.20682C6.33976 1.13517 6.7334 1.08421 7.12891 1.05416C7.21838 1.04732 7.28065 1.03249 7.31921 0.969655C7.38432 0.863987 7.50017 0.82332 7.66144 0.81132C8.09547 0.778987 8.526 0.776653 8.96104 0.806487C9.17088 0.820987 9.31077 0.874154 9.39124 1.01199C9.42296 1.06616 9.47754 1.08616 9.55934 1.09199C9.73012 1.10399 9.8999 1.12232 10.0692 1.14482C10.289 1.17416 10.5067 1.21132 10.7349 1.24866C10.6955 1.11616 10.6343 1.00399 10.5653 0.893821C10.3019 0.473317 9.87936 0.186814 9.25084 0.0706461C8.77858 -0.0165214 8.30064 -0.00885467 7.82186 0.0188123C7.52221 0.0361458 7.23625 0.0954797 6.96931 0.198147C6.41308 0.411483 6.13947 0.77582 5.94949 1.20682H5.94966ZM0.330723 1.59116C0.519725 1.66244 0.697102 1.7613 0.857076 1.8845C1.20681 2.15167 1.44753 2.47034 1.67056 2.79651C1.91846 3.15884 2.11361 3.53735 2.29758 3.92085C2.33414 3.89868 2.33681 3.87218 2.34465 3.84652C2.43847 3.54318 2.54865 3.24301 2.68971 2.94901C2.93995 2.42817 3.27483 1.9465 3.88448 1.59266C3.94575 1.55716 3.94074 1.53233 3.8955 1.49049C3.70235 1.31183 3.49385 1.14382 3.25062 1.00049C3.05831 0.887321 2.83729 0.829987 2.58604 0.834154C2.03448 0.843154 1.53267 0.972988 1.0569 1.16366C0.782789 1.27349 0.527709 1.40199 0.330723 1.59116ZM7.58732 1.21499L7.53022 1.22332C7.52171 1.22149 7.51286 1.21732 7.50468 1.21766C6.78218 1.25716 6.06535 1.32066 5.36955 1.47633C4.62435 1.64299 4.04925 1.96683 3.6496 2.45267C3.33142 2.83967 3.15747 3.26734 2.99888 3.69768C2.83311 4.14735 2.71792 4.60569 2.61559 5.06503C2.45032 5.80654 2.32479 6.55204 2.2066 7.29788C2.12177 7.84184 2.04297 8.38671 1.97021 8.9324C1.86521 9.70674 1.77189 10.4816 1.76488 11.2608C1.75837 11.9443 1.7794 12.6258 2.07038 13.2856C2.26118 13.7183 2.58955 14.074 3.14211 14.311C3.71471 14.5566 4.34139 14.6893 4.9831 14.7891C5.93347 14.937 6.8992 14.9856 7.86844 14.9968C8.91012 15.0088 9.95098 14.9906 10.9845 14.8815C11.7422 14.8015 12.4853 14.6798 13.1884 14.4506C13.8276 14.2423 14.294 13.9176 14.5478 13.4351C14.7998 12.9563 14.886 12.4568 14.9154 11.9514C14.9816 10.8098 14.8294 9.67541 14.6695 8.54206C14.5521 7.71022 14.4247 6.87905 14.2706 6.05004C14.1763 5.54303 14.0763 5.03703 13.9449 4.53452C13.7922 3.95118 13.6111 3.37368 13.2974 2.82234C12.9153 2.15033 12.2726 1.67583 11.2967 1.47233C10.084 1.21966 8.84268 1.15849 7.58732 1.21499ZM15.2255 8.24423C15.226 8.3104 15.2289 8.37656 15.2522 8.44106L15.3292 8.9729C15.3182 9.00657 15.3237 9.03824 15.3459 9.08124C15.3639 9.03657 15.4033 9.01124 15.391 8.9739L15.6247 8.14139C15.6409 8.11073 15.6562 8.08006 15.6477 8.04639C15.6929 7.97039 15.7033 7.88806 15.7312 7.80889C15.9008 7.32939 16.0163 6.84221 16.1251 6.35421C16.245 5.8172 16.3483 5.27803 16.4814 4.74269C16.645 4.08435 16.7184 3.42268 16.6867 2.75517C16.6749 2.50817 16.6587 2.25967 16.5672 2.003C16.4909 2.04617 16.4241 2.0785 16.3659 2.11767C16.0971 2.29884 15.9065 2.52234 15.7357 2.75367C15.2492 3.41251 14.9336 4.11952 14.6387 4.83203C14.6237 4.86819 14.6324 4.90269 14.6409 4.93853C14.7935 5.58487 14.9043 6.23521 15.0092 6.88621C15.0821 7.33889 15.1534 7.79156 15.2255 8.24423ZM0.0465965 2.17633C-0.00214919 2.31767 0.000354858 2.46217 2.0984e-05 2.60617C-0.00164839 3.26034 0.0965107 3.90852 0.214368 4.55619C0.316701 5.11903 0.458931 5.67637 0.597489 6.23437C0.730647 6.77642 0.869658 7.31701 1.0145 7.85606C1.15372 8.36923 1.20397 8.8889 1.25689 9.40874C1.26073 9.44674 1.25188 9.48757 1.28828 9.52541C1.29529 9.51474 1.3043 9.50707 1.3053 9.49874C1.40009 8.73696 1.50895 7.97699 1.63183 7.21922C1.75169 6.48038 1.86604 5.7412 2.03498 5.00719C2.05719 4.91136 2.08457 4.81769 2.03465 4.71719C1.93716 4.52019 1.86354 4.31719 1.76972 4.11919C1.52149 3.59551 1.25722 3.07601 0.860916 2.59917C0.700489 2.40584 0.534387 2.2135 0.277471 2.07583C0.219043 2.0395 0.155606 1.975 0.0859936 1.99767C0.0280664 2.01667 0.0491005 2.09583 0.0379157 2.14867C0.0362463 2.15733 0.0434246 2.167 0.0465965 2.17633ZM15.5217 1.13682C14.9789 0.947704 14.4075 0.853543 13.8326 0.858487C13.6665 0.858714 13.5039 0.906428 13.364 0.995989C13.126 1.14816 12.9605 1.33883 12.8188 1.54216C12.7897 1.58383 12.821 1.60066 12.8577 1.62266C13.0196 1.719 13.1703 1.83298 13.3071 1.9625C13.7773 2.4095 14.0177 2.92967 14.2161 3.46301C14.2765 3.62568 14.3304 3.78952 14.3943 3.97302C14.5887 3.57401 14.7763 3.19518 15.0224 2.83401C15.3215 2.39484 15.6434 1.9665 16.2043 1.666L16.2771 1.63233L16.3402 1.60699C16.3986 1.59166 16.3632 1.57616 16.3402 1.56066C16.3286 1.52733 16.2984 1.50399 16.2624 1.48349C16.2327 1.44233 16.1851 1.41466 16.1305 1.39216C16.0086 1.30932 15.8667 1.24882 15.7162 1.19816C15.6539 1.17349 15.597 1.13982 15.5217 1.13682Z" fill="white"/>
</svg>
