<svg width="18" height="14" viewBox="0 0 18 14" fill="none" xmlns="http://www.w3.org/2000/svg">
<path d="M5.4217 14C11.9276 14 15.4854 8.61436 15.4854 3.94412C15.4854 3.79114 15.4823 3.63887 15.4754 3.48728C16.1661 2.9884 16.7663 2.36585 17.2398 1.65715C16.606 1.93863 15.924 2.12811 15.2086 2.21356C15.9388 1.77601 16.4994 1.08386 16.7639 0.258739C16.0805 0.663559 15.3237 0.957784 14.5179 1.11663C13.8725 0.429671 12.9536 0 11.9361 0C9.98285 0 8.3989 1.58278 8.3989 3.53378C8.3989 3.81112 8.42993 4.08089 8.49061 4.33965C5.55093 4.19185 2.94423 2.78548 1.19968 0.647019C0.89592 1.16932 0.720765 1.77603 0.720765 2.42339C0.720765 3.64957 1.34521 4.73204 2.29477 5.3653C1.71447 5.34738 1.16934 5.18821 0.692881 4.92327C0.692361 4.9381 0.692359 4.95256 0.692359 4.9684C0.692359 6.68003 1.91157 8.1091 3.53 8.43293C3.23278 8.51389 2.92008 8.55731 2.59733 8.55731C2.36977 8.55731 2.14806 8.53493 1.93256 8.49357C2.38286 9.89784 3.68862 10.9197 5.23671 10.9483C4.02612 11.8964 2.50112 12.4611 0.843698 12.4611C0.558552 12.4611 0.276856 12.4449 0 12.4122C1.56538 13.4148 3.42413 13.9998 5.42189 13.9998" fill="#BABABB"/>
</svg>
